<svg xmlns="http://www.w3.org/2000/svg" viewBox="0 0 915.11 256.67"><defs><style>.cls-1{fill:#9c2a2a;}.cls-2{fill:#922e2d;}.cls-3{fill:#013f21;}.cls-4{fill:#023e23;}.cls-5{fill:#023e22;}.cls-6{fill:#033e22;}.cls-7{fill:#023e21;}.cls-8{fill:#043d23;}.cls-9{fill:#023f22;}.cls-10{fill:#013e22;}.cls-11{fill:#053e22;}.cls-12{fill:#043e24;}.cls-13{fill:#043e22;}.cls-14{fill:#043e23;}.cls-15{fill:#043d25;}.cls-16{fill:#043f23;}.cls-17{fill:#88332e;}.cls-18{fill:#232424;}.cls-19{fill:#083d21;}.cls-20{fill:#063f25;}.cls-21{fill:#0c3f24;}.cls-22{fill:#903238;}.cls-23{fill:#2d2d2d;}.cls-24{fill:#262626;}.cls-25{fill:#222;}.cls-26{fill:#ebedec;}.cls-27{fill:#565756;}.cls-28{fill:#8c8c8c;}.cls-29{fill:#2b2a29;}.cls-30{fill:#2f2f2f;}.cls-31{fill:#757575;}.cls-32{fill:#383939;}.cls-33{fill:#797a79;}.cls-34{fill:#3d3d3d;}.cls-35{fill:#676868;}.cls-36{fill:#4e4e4e;}.cls-37{fill:#8d8e8e;}.cls-38{fill:#888;}.cls-39{fill:#2c2c2c;}.cls-40{fill:#6f6f6f;}.cls-41{fill:#595959;}.cls-42{fill:#706869;}.cls-43{fill:#747474;}.cls-44{fill:#515151;}.cls-45{fill:#c6c6c6;}.cls-46{fill:#ddd;}.cls-47{fill:#565656;}.cls-48{fill:#262727;}.cls-49{fill:#a2a2a2;}.cls-50{fill:#b9baba;}.cls-51{fill:#585555;}.cls-52{fill:#2b2b2b;}.cls-53{fill:#686868;}.cls-54{fill:#4c4c4c;}.cls-55{fill:#7d7e7d;}.cls-56{fill:#cccecd;}.cls-57{fill:#383838;}.cls-58{fill:#949494;}.cls-59{fill:#c4c6c5;}.cls-60{fill:#727373;}.cls-61{fill:#434343;}.cls-62{fill:#3b2e23;}.cls-63{fill:#958276;}.cls-64{fill:#969696;}.cls-65{fill:#585858;}.cls-66{fill:#545454;}.cls-67{fill:#a9a9a9;}.cls-68{fill:#3f4040;}.cls-69{fill:#92524f;}.cls-70{fill:#fcfcfc;}.cls-71{fill:#fafafa;}.cls-72{fill:#222121;}.cls-73{fill:#656464;}.cls-74{fill:#bed3c3;}.cls-75{fill:#6b6c6c;}.cls-76{fill:#d7ebdd;}.cls-77{fill:#e3ecdd;}.cls-78{fill:#d6e5da;}.cls-79{fill:#323533;}.cls-80{fill:#eef0ef;}.cls-81{fill:#212021;}.cls-82{fill:#f4f2f3;}.cls-83{fill:#838383;}.cls-84{fill:#dedfdf;}.cls-85{fill:#b8baba;}.cls-86{fill:#d1d5d4;}.cls-87{fill:#9b9d9c;}.cls-88{fill:#6c6c6c;}.cls-89{fill:#9fa0a0;}.cls-90{fill:#d9d9d9;}.cls-91{fill:#c1c1c1;}.cls-92{fill:#737373;}.cls-93{fill:#eae9e9;}.cls-94{fill:#626262;}.cls-95{fill:#ececec;}.cls-96{fill:#e5e7e6;}.cls-97{fill:#e5e5e5;}.cls-98{fill:#646665;}.cls-99{fill:#7e8080;}.cls-100{fill:#545655;}.cls-101{fill:#e5e6e6;}.cls-102{fill:#edeeed;}.cls-103{fill:#323131;}.cls-104{fill:#d2d1d2;}.cls-105{fill:#eceded;}.cls-106{fill:#343434;}.cls-107{fill:#abadac;}.cls-108{fill:#222423;}.cls-109{fill:#d3d3d3;}.cls-110{fill:#d0d0d0;}.cls-111{fill:#d4d4d4;}.cls-112{fill:#363636;}.cls-113{fill:#242424;}.cls-114{fill:#d8d9d9;}.cls-115{fill:#333434;}.cls-116{fill:#cccece;}.cls-117{fill:#656565;}.cls-118{fill:#2a2927;}.cls-119{fill:#484848;}.cls-120{fill:#373736;}.cls-121{fill:#626260;}.cls-122{fill:#3f3f3f;}.cls-123{fill:#3a3a3a;}.cls-124{fill:#545251;}.cls-125{fill:#676767;}.cls-126{fill:#edefef;}.cls-127{fill:#272a29;}.cls-128{fill:#202120;}.cls-129{fill:#424343;}.cls-130{fill:#ecefee;}.cls-131{fill:#bec0bf;}.cls-132{font-size:21.91px;font-family:BerlinSansFBDemi-Bold, Berlin Sans FB Demi;font-weight:700;}</style></defs><title>Recurso 1</title><g id="Capa_2" data-name="Capa 2"><g id="Capa_1-2" data-name="Capa 1"><path class="cls-1" d="M820.08,136.79c.85-5.16-.71-9.88-2.88-14.4-5-10.35-12.46-18.67-21.16-26-.47-1.6-3.49-2.24-2-4.5s4.08-1.27,5.87-.47c5.72,2.53,11,5.86,16.79,8.38a58.72,58.72,0,0,0,6.46,2.23c17.73,8.45,34.61,18.45,51.58,28.27,12.2,7.06,24.13,14.54,35.71,22.58,2,1.38,4.88,2.49,4.61,5.4-.25,2.65-3.08,3.25-5.16,4.12-49.93,20.9-98,45.65-146.2,70.14-13.65,6.94-27.53,13.42-41.37,20-3.38,1.59-7.05,2.56-10.55,3.91-.87.33-1.46.45-2.14-.29-.91-1,.25-1.46.52-2,1.89-3.6,5.12-6.07,8-8.74,24.64-22.67,47.81-46.82,71.49-70.46.89-.88,1.63-1.91,2.44-2.88a29.9,29.9,0,0,0,6.08-5.81c3.45-3.91,7-7.76,10.31-11.76A49.75,49.75,0,0,0,812,149.1c.53-3.93-2.42-4.19-5-4.51-1.92-.23-3.77-.18-3.59-2.82.2-2.79,2.38-2.17,4.09-2.21,2.63-.05,5.26,0,7.89,0C817.43,139.5,819.33,139.1,820.08,136.79Z"/><path class="cls-2" d="M468.14,147a5.19,5.19,0,0,0-3.86.39,163.57,163.57,0,0,1-18.26,0c-3.31-.62-6.65-1.68-9.74.68-16.95-.81-33.91-.26-50.87-.34-5.48,0-5.65.28-5.66,5.63,0,8.31.05,16.62,0,24.94,0,2.25.39,4.74-1.84,6.41-.11-11.1-.18-22.21-.38-33.31,0-1.6,1.06-4.11-1.67-4.46-2.26-.29-5-1.17-6.46,1.88a50.29,50.29,0,0,0-11.87-1.17c-15.46-.14-30.93.48-46.38-.32-7.29-1.37-7.34-1.3-7.4,5.58,0,4.9-.21,9.79-.31,14.68-2.92-3.1-1.52-6.95-1.6-10.45-.21-9.86-.56-10.35-10.19-9.16a55.38,55.38,0,0,1-15.85-.06c-4.21-.68-8.59-1.16-12.73.76-2.89-3.42-6.73-1.87-10.12-1.58-1.7.14-1,2.48-1.08,3.88-.26,11.23.47,22.47-.38,33.7-2.23-1.66-1.77-4.13-1.8-6.37-.1-8.42,0-16.85-.08-25.27-.07-4.95-.67-5.34-5.6-4.86-3.59.35-7.19,1.17-10.77-.11-6.79-3.34-9.12-2-9.23,5.15-.17,10.53.58,21.07-.4,31.58-2.46-1.54-1.82-4.08-1.86-6.29-.12-8.29,0-16.59-.09-24.88-.08-5.12-.8-5.59-5.85-5.52a78.32,78.32,0,0,1-10.39-.07.7.7,0,0,1-.34-.66c-.59-1.2-1.73-.88-2.62-.77-11.54,1.5-23.17.46-34.74,1.23-7.79-.22-15.6-.91-23.33.81,0-2.43-1.88-1.87-3.19-1.89-5.27-.06-10.54.1-15.8,0-2.23-.07-3.45.55-3.49,2.87-3.7-1.95-7.63-1.07-11.52-1-3.43,0-4.72,1.59-4.71,4.89,0,7.32.15,14.64-.08,22,0,1.8,1,4.44-2.12,5.11-.08-9.07-.17-18.14-.22-27.21,0-7.15-2.9-8.69-9.69-5.17a259.28,259.28,0,0,0-32.39-.15c-3.14-2.14-6.48-1.31-9.81-.62-6.09-.05-12.19.77-18.28,0C24,146,14.83,147,5.73,146.72c-3-.08-5.65.59-5.73-4.31-.08-5.16,2.72-4.57,5.91-4.55q11.21.06,22.42,0c1.61,0,3.35.45,4.75-.85,5.91-1.07,11.9,0,17.82-.73,2-.09,4,.49,6,.28,10.58-.18,21.16-.05,31.74-.07a38.56,38.56,0,0,0,8.85-.84c4.08,2,4.14-2.52,6.2-3.82,2.25,5.79,7.2,4.81,11.84,4.83,2.12,0,4.17-.89,6.31-.38.25.43.48,1.23.74,1.24,9.19.22,18.39,1.25,27.54-.55,7-1.17,14.25.59,21.23-1.36,2.67.82,4.48.5,4.49-3,0-1.72-.35-3.75,1.69-4.83,2.11.93,2,2.92,2,4.64,0,3.28,1.79,4.07,4.71,4.18,3.92.14,7.8-.6,11.71-.3,3.17,2.42,6.33,2.61,9.46-.08,3.65-.42,7.28.28,10.93.27,3.89,0,5.29-1.65,5.27-5.41-.06-11.31-.08-22.63,0-33.94,0-2.39-.61-5.1,1.94-6.82.95,14.12.14,28.25.44,42.38,0,1.7-1,4.5,1.13,4.82,2.59.39,5.91,1.91,8.09-1.36a114,114,0,0,0,17.53.13,40.54,40.54,0,0,0,7.14,0,120.38,120.38,0,0,0,20.45-.27c1.74,2.57,4.23,1.88,6.65,1.57,3.6-1.94,7.52-1.16,11.29-1.13s5.3-1.59,5.28-5.37c-.07-11.16-.09-22.33,0-33.49,0-2.42-.5-5.09,1.84-6.93q.15,20.1.27,40.21c0,7.2,0,7.2,7.24,6.8,2.07-1.36,4.41-1.33,6.74-1.33q22.9,0,45.83,0c2.32,0,4.67-.1,6.73,1.31,9,.44,7.12.34,7.3-6.82l.3-11.42c3.1,3,1.7,6.88,1.86,10.39.3,6.14.47,6.55,6.55,6.57q21,.09,41.92,0c6,0,6.32-.39,6.36-6.65.06-8-.05-16,.06-24,0-2.25-.38-4.74,1.86-6.4,1.35,7.85.3,15.75.6,23.63.1,2.64,0,5.28,0,7.92,0,7.63,1.41,8.56,8.93,6a82,82,0,0,1,18.26.07c1.1,1.1,2.47.85,3.8.76,6.62-2.19,13.32-1.54,20-.61,7.31,1.6,14.71.38,22.06.68,2.69.11,2-2,2.15-3.52.37-5.24-.53-10.52.49-15.75,2,1.09,1.68,3,1.79,4.8.15,2.47,0,4.94.07,7.41.11,5.23.54,5.52,5.6,5.82,3.61.22,7.17-.83,10.77-.2,1,2.32,3.12,1.45,4.79,1.46,16.4.06,32.81,0,49.21,0a7.53,7.53,0,0,1,4.1-1.34c3-.33,3.48-2.47,3.5-5,0-4.44-.11-8.88.08-13.32.09-2-.36-4.41,2.29-5.4,1.94,1.61,1.55,3.88,1.61,6,.1,3.79-.06,7.59.07,11.38.07,2-.71,4.55,1.75,5.73s3.37-1.56,5.18-2.12c2.85,2.31,6.08,2.72,9.69,2.73,14.92,0,29.84-.53,44.76.27,3.47,1,3.1,4,3.42,6.65-.14,1.54-.14,3.15-1.82,4-18.11.06-36.21,0-54.31,0-3.88-.59-6.81.5-8,4.61-2.77-1.42-4.66-4.58-8.34-4.24a8.22,8.22,0,0,0-4.67-1.34c-16.87,0-33.73,0-50.6,0-.89,0-2.05-.43-2.49.92l0,.26-.22.15c-3.63.64-7.19-.42-10.81-.4-4,0-5.73,1.38-5.61,5.49.18,5.62.13,11.24,0,16.86,0,2.07.37,4.38-1.82,5.83-1-8.23-.32-16.49-.41-24.74,0-3.1-.79-4.37-4.14-4.26-7.28.22-14.57.06-21.85,0-1.51,0-3,0-4.13,1.22C477.63,146.84,472.81,148.09,468.14,147Z"/><path class="cls-3" d="M98.85,136.22A7.47,7.47,0,0,1,94.38,138c-12.73-.15-25.46-.17-38.19-.23-2.23-1.45-3-3.8-3.88-6.12,0,1.89.47,3.92-1.07,5.53A40.35,40.35,0,0,1,33.08,137c0-10-.08-20-.06-29.93a19.29,19.29,0,0,1,3.85-11.64C42.19,88.21,49.6,87.52,56,93.78c6.18,6,9.78,13.75,13.3,21.47,2.61,5.72,5,11.51,8,18.32,3.18-7.11,5.9-13.35,8.75-19.53,3.06-6.64,6.19-13.25,11.11-18.81,7.55-8.54,17.38-7.21,22.42,3a20.91,20.91,0,0,1,2.35,9.09c0,9.64-.06,19.29-.1,28.93-5.24,3.46-11,1.32-16.5,1.26-2.2,0-.76-3.46-1.82-5.06-1.6-.58-1-1.64-.79-2.6C101.28,131.75,102.17,135.34,98.85,136.22Z"/><path class="cls-4" d="M370.25,137.69l-59.3,0c0-5.5.12-11,0-16.48-.06-2.4.76-3.36,3.16-3.1,1.15.12,2.33,0,3.49,0,3.79.18,8.49-1.51,11.13.71s.83,6.89.81,10.48c0,2.72,1,3.44,3.51,3.38,5.16-.11,10.32-.14,15.48,0,2.74.09,3.42-1.07,3.33-3.55-.14-4-.21-8,0-12,.19-3.1-.92-4-4-4-10.81.16-21.64-.06-32.45.13-3.31.06-4.79-.55-4.55-4.26a135.49,135.49,0,0,0,0-15.48c-.17-3.23.73-4.26,4.11-4.21,14.15.21,28.3.1,42.45.13,7.51,0,12.62,5,12.7,12.65C370.31,114.05,370.24,125.87,370.25,137.69Z"/><path class="cls-4" d="M709.32,136.37c-.07-5.15-.08-10.3-.25-15.45-.07-2.21.83-3,2.95-2.8,1.15.11,2.33,0,3.49,0,3.8.1,8.52-1.09,11.12.73s.76,6.8.84,10.39c.06,2.56.82,3.57,3.46,3.49,5.15-.14,10.31-.09,15.46,0,2.42,0,3.74-.59,3.55-3.36-.35-5.12,2-11.61-.88-15s-9.4-.9-14.31-1c-7.32-.19-14.65-.17-22,0-2.73.06-3.85-.63-3.75-3.55.19-5.65.15-11.32,0-17-.08-2.68,1-3.34,3.51-3.32,15.13.08,30.27,0,45.41.06,5.51,0,10.36,5.75,10.41,12.43.1,12,0,24-.09,35.93-1.36,1.62-3.27,1.46-5.07,1.48-15.62.14-31.24.38-46.86.2C713.61,139.6,710.48,140,709.32,136.37Z"/><path class="cls-5" d="M436.46,99.4c0,11.14-.19,22.29,0,33.43,0,3.71-.82,5.25-5,5.19q-24.21-.37-48.42,0c-4.13.06-5.11-1.38-4.94-5.14.2-4.47-.12-9-.22-13.44,3.64-2.88,7.85-1.07,11.76-1.2,7.4-.24,6.43-1.28,6.51,6.56a23.88,23.88,0,0,1,0,3.49c-.5,3.47.85,4.68,4.38,4.47,4.81-.29,9.65-.2,14.47-.06,2.54.07,3.79-.71,3.45-3.37-.05-.33,0-.67,0-1-.31-4.79,2-11-.85-14s-9.14-.83-13.92-.94q-11-.27-22,0c-2.9.07-4.19-.5-4-3.78.29-5.65.19-11.32,0-17-.05-2.37.61-3.14,3.08-3.12,15.31.12,30.62,0,45.93.15C432.81,89.73,434.7,94.64,436.46,99.4Z"/><path class="cls-5" d="M144.35,148.59c1.15-.52.92-2.51,2.77-2.39,6.72.43,13.5-.84,20.17.79,8.82-1,17.67-.21,26.5-.41a2.24,2.24,0,0,1,2.25,1.58c0,11-.18,21.94.13,32.9.11,3.95-1.25,5.05-4.8,4.54-.65-.1-1.33,0-2,0-3.79-.22-8.48,1.5-11.12-.74s-.73-6.87-.81-10.45c-.06-2.56-.83-3.53-3.47-3.44-5.14.16-10.31.23-15.45,0-2.84-.14-4.64,1-5.24,3.44-2.48,10.17-9.19,12.32-18.77,11.38-8.71-.85-8.85-.24-5.05-7.87C134.35,168.08,139.38,158.35,144.35,148.59Z"/><path class="cls-6" d="M768.2,146.15a10.62,10.62,0,0,1-5.7,9.36c-2.78,1.52-2.52,2.67-1.34,4.94,3.67,7.08,7.11,14.29,10.77,21.39,1.32,2.56,1.46,4-2.08,3.7-.33,0-.67,0-1,0-5.63-.21-12.14,1.94-16.67-.83-4.33-2.65-5.37-9.26-7.93-14.09-1.94-3.68-3.83-7.39-5.57-11.17a4.09,4.09,0,0,0-4.12-2.79c-7-.23-7-.35-7,6.82,0,5.83-.31,11.68.11,17.48.28,4-1.2,4.9-4.77,4.64a63.94,63.94,0,0,0-10,0c-3.22.26-3.9-1.09-3.86-4,.16-11.82.11-23.64.13-35.47,1.65-1.82,3.9-1.67,6-1.7,16-.26,31.95.31,47.93.23C764.94,144.64,766.85,144.51,768.2,146.15Z"/><path class="cls-7" d="M377.87,184.65c.09-11.16.36-22.32.17-33.47-.07-4,1.41-5,5.13-5,16.33.13,32.66.05,49,.08,1.59,0,3.46-.49,4.12,1.76-.52,3.16-2.22,6-4.88,7.19-3.69,1.67-2.75,3.33-1.39,5.94,3.63,6.92,6.85,14.06,10.54,20.94,1.72,3.19.7,3.75-2.26,3.44-.17,0-.34,0-.5,0-5.81-.15-12.72,2.1-17.09-.84-4.13-2.78-5.62-9.47-8.22-14.47-1.77-3.4-3.61-6.77-5.1-10.28-1-2.31-2.24-3.26-4.82-3.29-6.45-.06-6.45-.2-6.45,6.29,0,6.33-.13,12.66.08,19,.09,2.88-.89,3.94-3.69,3.64C387.64,185,382.64,186.58,377.87,184.65Z"/><path class="cls-8" d="M464.27,137a35,35,0,0,1-18.26-.07c-.05-14.66-.06-29.32-.2-44,0-2.55.7-3.53,3.37-3.5,13.66.13,27.32.11,41,.11,1.6,0,2.81.28,3.65,1.92,3.6,7.08,7.33,14.09,11.39,21.85-12.07,0-23.35.28-34.61-.13-5.08-.18-6.68,1.23-6.3,6.32C464.73,125.31,464.31,131.17,464.27,137Z"/><path class="cls-5" d="M446,147.33a30.93,30.93,0,0,1,18.27,0c0,3.33.32,6.68,0,10-.3,3.49,1.16,4.15,4.29,4.1,10.65-.17,21.3.09,31.94-.13,4.29-.09,4.33,1.17,2.51,4.42-3.1,5.49-6,11.11-8.76,16.77a4.78,4.78,0,0,1-5,3.1c-13.14-.12-26.28,0-39.42,0-2.24,0-4.19.08-4.13-3.31C446,170.62,446,159,446,147.33Z"/><path class="cls-9" d="M172.08,136.15c-7.21,3.16-14.57,2-21.93.82,6.68-13.4,13.08-26.94,20.13-40.13,5.33-10,16.42-9.89,22.42-.33a20.23,20.23,0,0,1,3.35,10.83c0,9.67-.07,19.33-.1,29-5.24,3.16-10.92,1.16-16.4,1.31-1.35,0-1.43-1.62-1.52-2.77-.18-2.13-.3-4.27-.45-6.41C175.18,130.63,176.24,135.27,172.08,136.15Z"/><path class="cls-9" d="M512.82,175.65c.07-8.31.27-16.62.15-24.92,0-3.39.94-5,4.54-4.52,4.51.61,9.33-1.38,13.55,1.67,0,.32.06.66.1,1,.52,4-1.88,9.48,1.09,11.83,2.5,2,7.65.62,11.62.64,7.81,0,15.62.14,23.42,0,3.32-.07,4.77.33,2.73,3.95-3.17,5.64-6.22,11.36-9,17.21-1.21,2.58-2.8,3.16-5.37,3.13-10.3-.11-20.6,0-30.9-.06C517.41,185.53,514.57,183.14,512.82,175.65Z"/><path class="cls-10" d="M251.32,137c-6.09,1.22-12.17,2.38-18.08-.76-.05-9.65-.26-19.3-.09-28.94.1-5.25,1.68-10.11,5.71-13.91,6.64-6.25,15.43-5,20,3.51,6.84,12.89,13.06,26.11,19.54,39.19-.53.58-1.06,1.66-1.59,1.66-6.52-.07-13.09,1.19-19.54-.7-2.65-.73-2.77-3.52-4.45-5.46C251.93,133.35,252.89,135.56,251.32,137Z"/><path class="cls-4" d="M571.84,113.33H534.6c-6,0-12-.14-18,.07-3.13.11-4.71-.59-4.25-4.08a56,56,0,0,0,.07-6.48c.11-9.48,3.86-13.24,13.2-13.26,10.14,0,20.28,0,30.42-.14,2.54,0,3.85.69,5,3C564.39,99.21,568,105.88,571.84,113.33Z"/><path class="cls-6" d="M263,148.62c.11-2.83,2.43-2.27,4-2.34a48.73,48.73,0,0,1,12.35.67c6.16,1.33,12.2-.8,18.33-.84,4.19,0,5.58,1.58,5.48,5.57-.13,5.28.13,10.58.22,15.86A19,19,0,0,1,300.62,178c-5.73,9.89-17.6,10-23,0C272.39,168.36,267.85,158.41,263,148.62Z"/><path class="cls-11" d="M311.11,147.27c1.27-1.57,3.06-1,4.65-1,16.12,0,32.24,0,48.36,0,2.17,0,4.47-.33,5.24,2.53-1.83,5.62-5.48,8.24-11.6,8-8.14-.31-16.31,0-24.47-.11-2.8,0-3.79.75-3.72,3.64.17,7.16-.08,14.33.07,21.48.06,2.82-.9,3.66-3.69,3.82-15,.83-15,.91-15-13.85C311,163.59,311.06,155.43,311.11,147.27Z"/><path class="cls-12" d="M303.44,90.7c-.1,14-.35,28-.2,42,0,4.1-1,5.75-5.27,5.36s-8.64-.28-13-.39c0-14.63.07-29.25-.09-43.87,0-3.12.6-4.65,4-4.14C293.74,90.34,298.75,88.34,303.44,90.7Z"/><path class="cls-13" d="M223.58,90.36q-.14,19.35-.25,38.71c-.05,10.93.33,8.73-8.64,8.76-3.1,0-6.64,1.54-9.28-1.57q-.1-21.73-.19-43.47c0-1.43-.24-3.31,2.09-3.14C212.73,90.05,218.22,88.65,223.58,90.36Z"/><path class="cls-14" d="M33.05,147.31c6.09-1.44,12.19-2,18.28,0,0,11.6,0,23.21.17,34.81,0,2.5-.61,3.64-3.33,3.5a99.06,99.06,0,0,0-11.43,0c-3.17.21-3.88-1-3.83-4C33.1,170.18,33,158.74,33.05,147.31Z"/><path class="cls-15" d="M103.44,180.45c1.2-9.18.42-18.41.42-27.61,0-4.38,1-6.52,5.78-5.92a14.35,14.35,0,0,0,6.87-.45c3-1.11,4.6.26,5.36,3.07,0,10.77,0,21.54.17,32.32,0,2.81-.84,3.84-3.66,3.7a69.94,69.94,0,0,0-10.44.07C103.69,186.05,102.66,184.15,103.44,180.45Z"/><path class="cls-16" d="M205.38,148c4.89-3.07,10.27-1.16,15.4-1.32,2.83-.08,2.49,3,2.51,5.13l.27,33c-.34.2-.68.42-1,.63a156.9,156.9,0,0,1-15.79,0c-2.09-.25-1.48-1.91-1.48-3.08C205.27,170.83,205.34,159.41,205.38,148Z"/><path class="cls-16" d="M233.2,148c4.93-1.66,10.12-1,15.17-1.74,3.12-.43,2.8,2.13,2.81,4,.06,9.78,0,19.57,0,29.36,0,1.65.14,3.3.21,4.95l-.84.73c-5.55.29-11.09.23-16.63,0-1.06-.62-.91-1.67-.91-2.64Q233.12,165.38,233.2,148Z"/><path class="cls-17" d="M768.2,146.15l-59,0-.15.18c-4.2-1.69-8.58-.29-12.85-.78-1.64-.19-3.73.84-4.63-1.55.13-2-.9-3.87-.59-5.88a.82.82,0,0,1,1.23-.11c4.56.08,9.11.13,13.67.23,1.53,0,3,0,3.48-1.84,1.15,1.39,2.64,1.67,4.39,1.66q27.28-.09,54.57-.07c13.42,1.39,26.9.45,40.34.92,3.94.14,8,.8,11.46-2.08.31,2.31-.63,3.35-3,3.28-3.3-.1-6.6,0-9.9,0-1.35,0-2.79,0-2.82,1.93s1.36,1.93,2.74,2c1.91.12,3.83-.33,5.51,1.41s1.37,2.73-.6,3.67a6.79,6.79,0,0,0-5.5-3.82A225.56,225.56,0,0,0,768.2,146.15Z"/><path class="cls-18" d="M698.24,23c5.7,1.61,5.63,6.13,5.24,10.67-.36,4.17-.62,8.57-6.56,8.52-1.3,0-2,1.06-2.82,1.83a3.32,3.32,0,0,1-2.38.78c-4.58-.64-9.19-.18-13.79-.33-1.8-.06-3.64.16-5.28-.85-1.17-1-.7-2,.17-2.87a3.84,3.84,0,0,0,1.43-3.39,2.92,2.92,0,0,1,1.13-2.6c4.9-.43,9.65,1.56,14.57.95,1.89-.23,4,.32,5.32-1.62.15-1.83-1.24-1.59-2.3-1.63-3.06-.11-6.13-.07-9.2,0-2.53-.07-5.07.21-7.56-.45-1.23-1.07-3.38.42-4.32-1.52a3.61,3.61,0,0,1,1-2.23c-.81,0-1.26.6-1.73,1.06-2.28,2.22-5,3.78-7.6,5.61-4,2.45-7.76,5.46-12.3,7a5.58,5.58,0,0,1-2.23-.07,5,5,0,0,1-3.53-3.59c-.23-1.92,1-2.38,2.54-3a46.88,46.88,0,0,0,10.66-6c4.07-2.81,8.17-5.57,12.44-8.07a5.54,5.54,0,0,1,2.22-.14,19.76,19.76,0,0,1,4.31,1.34c5.15,2.39,10.57.93,15.87,1.09l1.32-.53C696,22.64,697.09,22.26,698.24,23Z"/><path class="cls-19" d="M61.14,147.92a1.52,1.52,0,0,1,1.66-1.26c9.37-.61,18.72-1.07,28.05.34a12.23,12.23,0,0,1,2.68,1.08,36.9,36.9,0,0,1-9.47,13.82c-4.26,3.74-8.61,3.73-13,.14C66.41,158.28,63.58,153.23,61.14,147.92Z"/><path class="cls-20" d="M531,136.38c-5.25,3.2-11,1.15-16.46,1.31-1.91.06-1.52-2.25-1.55-3.67-.11-5.15-.15-10.31-.22-15.47,5.22-.94,10.49-.12,15.72-.44,2.28-.14,2.75,1,2.7,3C531.09,126.18,531.09,131.28,531,136.38Z"/><path class="cls-21" d="M488.1,137.14c-6.63,1.74-13.34.68-20,.61.18-3.93-1.11-9.24.93-11.44,2.43-2.62,7.82-.67,11.92-.84,3.3-.14,6.62,0,9.93,0,2.37-.05,3,.73,1.84,2.92C491.11,131.25,489.63,134.21,488.1,137.14Z"/><path class="cls-22" d="M823.19,102c-5.39.68-9.82-2.12-14.18-4.45-2.84-1.52-5.75-3-8.53-4.67-1.71-1-3.91-1.91-5.44-.73-1.74,1.34,1.79,2.47,1,4.21a145.16,145.16,0,0,0-36.49-17.88c-1.14-.38-3.13-.51-2.78-2.21s2.26-1.08,3.44-.92a78.84,78.84,0,0,1,18.57,5.5A375.29,375.29,0,0,1,823.19,102Z"/><path class="cls-23" d="M672.19,42.38c4.88,1.34,9.85.25,14.77.63,1.76.13,3.67-.58,5.22.88A3,3,0,0,1,690.86,45c-5,1-10,.21-14.93.49-3.23-.09-1.46,3.26-3,4.35-2.62,2-5.42,4-8.81,3.93-3,0-4.1,3.19-6.79,3.44-1.74,3.84-6.71,2.08-8.89,5.15-2.45,1.4-5.23,1-7.85,1.49-2,.51-3.93,2.68-6.18.67-1.34-1.2-.9-2.58-.12-3.91,1.9-1.59,4.51-2.83,3-6.11.48-4.6,2.95-2.82,5.25-1.66,2.4,1.39,4.65.83,7.09-.19,6.74-2.81,13.46-5.62,19.52-9.8C670,42.23,671,41.15,672.19,42.38Z"/><path class="cls-24" d="M658.16,203a31.1,31.1,0,0,1-9.75,2.14c-3.94.36-8.17,1.72-10.56-3.14-1.44-5.56,3.38-2.53,5.12-3.75.47-1.79,1.44-3,3.44-2.73,1.28.15,2.29.07,2.31-1.57.76-3.9,3-4.71,6.42-3.14a9.86,9.86,0,0,0,3.26.91c3.06,1.05,7.05.62,8.06,5-2.89,4.63-6.86.45-9.76,1.43C661.08,200,661.08,200,658.16,203Z"/><path class="cls-25" d="M668.09,9.17l.06,1.88a3.93,3.93,0,0,1,.78,3.55c-4.1,5.41-10.23,8.5-15,13.15a5,5,0,0,1-3.11,1.95c-2.57-.19-5.22-.54-6-3.46-1-3.38,1.34-5.59,3.43-7.78,1.38-1.08,3.08-1.49,4.62-2.26,3.79-2.33,7.32-5.07,11.2-7.27C665.41,8.14,666.87,6.79,668.09,9.17Z"/><path class="cls-26" d="M692.17,138a4.79,4.79,0,0,1-.78.4c-7.67-1.77-13.45-7.23-20.39-10.44a13.61,13.61,0,0,1-2.81-3.24c-1.33-2.18-6.09-3.17-2.51-7.09,1.51-1.36,3.12-1,4.75-.28,6.43,3.12,12.41,7.08,18.8,10.27,3.24,1.63,3.31,3.52,1.83,6.2Z"/><path class="cls-27" d="M683.21,83.8a3,3,0,0,1,2.62,2.6c.52,3.46.44,6.87,3,9.93,1.4,1.67-1.29,3.73-1.68,5.76-1.92,2.27-3.17,1.2-4.22-.85.58-1.38,2.48-1.63,3.07-3.45-7.72-3.7-15-7.9-23-10.89-2.49-.94-4.62-1.38-4.76,2.36a3,3,0,0,1-2.53,1.1c-1.67-5.13-7.21-8.21-7.49-14.08-.33-1.21-.84-2.41-.08-3.64,2-1.62,4-2.48,6.23-.31a6.05,6.05,0,0,1,0,3c-.29,1.79-.93,4,1.76,4.25,8.85.78,16.05,5.64,23.72,9.32,2.16,1,4.06,1.65,3-2C683.1,85.83,682.59,84.75,683.21,83.8Z"/><path class="cls-28" d="M638.16,55c2.39,3.74.12,5.13-3.06,6a5.47,5.47,0,0,0-1.75.77c-3.27,2.62-4.23,2.43-6-1.22a9,9,0,0,0-1.23-2.6c-1.29-1.17-3.62-1-4.14-3.17,1.06-4.24-1.13-5.72-4.94-5.76l-20.75-.22c-1.06-1.35-.25-1.93,1-2.33a89.41,89.41,0,0,0,9.82-.19c7.12-3.06,14.5-1.56,21.81-1.3,2.1,1,2.3,3,2.44,5,.59,1.12-3.26-.14-1,1.9.2,1.78,0,3.56.48,5.11.65-1.62,1.55-3.62,4-1.74C636.18,56.39,637.12,56,638.16,55Z"/><path class="cls-29" d="M691.06,133.79c.58-2.88-.54-4.3-3.32-5.67-6-3-11.75-6.65-17.6-10.05-1.42-1.67-3.78-1.61-5.42-2.9a4.14,4.14,0,0,1-1.06-3.4c1.7-2.78,4.06-1.84,6-.69,6.39,3.72,13.12,6.87,19.1,11.29.13.22.25.44.37.66a15.57,15.57,0,0,0,1.34,1.46C695.05,128.3,695.1,129.11,691.06,133.79Z"/><path class="cls-30" d="M689.14,113.08c5.76,5,5.76,5,0,10l0,.07c-.53-3.08-2.24-5-5.1-6.44-5.88-3-11.36-6.68-17.41-9.32a14.24,14.24,0,0,1-4.27-3.29c-1.07-.92-2.42-1.49-3.24-2.71-.92-1.65-1.78-3.64-.09-4.94s2.78,1,4.18,1.65c8,3.53,15.3,8.37,23,12.5A21.2,21.2,0,0,0,689.14,113.08Z"/><path class="cls-31" d="M669.06,124.42l2.26,2.48c-1.64,1.61.28,1.74,1,2.34,1.3,1.09,3.56,1.5,2.84,4-2.11,1.14-3.75-.59-5.62-.92-.86-.16-1.71-.11-2.13.77s.27,1.52,1,1.88c5.69,2.6,11.19,5.58,16.68,8.58,2.45,1.34,4-.46,5.71-1.68a1.2,1.2,0,0,1,1.29.23c-.16,3,2,2.67,4,3,4.29.62,8.84-1.54,12.91,1.22H690.68c.59,3,2.57,5.85.53,8.89a2.4,2.4,0,0,1-2.12.1,2.73,2.73,0,0,1-.67-2c0-.94.62-2.18-.41-2.74-5.2-2.84-9.81-6.7-15.4-8.85-1.16-.45-1.86.26-2.63.87-1.48.55-3,1.77-4.29-.36,0-1.81.18-3.49-1.65-4.84-2.43-1.8-2.5-4.4-.59-6.52,2.07-2.29,2.11-4.67,1.45-7.34C666.76,121.65,667.89,123.1,669.06,124.42Z"/><path class="cls-32" d="M689.14,113.08c-1.42.84-2.19-.15-3-1.07,1.58-3.3.25-5.14-2.86-6.58-7.93-3.68-15.43-8.29-23.89-10.78-.9-1.63-4.2-1.38-3.43-4.33a2.63,2.63,0,0,1,2.2-1.3,3.82,3.82,0,0,1,3.36-.13A114.53,114.53,0,0,1,681.93,99a2.86,2.86,0,0,1,1.23,2.08c1.14,1.07,2.37,1.78,4,1.06,3.39,1.83,5.1,4.14,2.2,7.75C688.51,110.88,688.93,112,689.14,113.08Z"/><path class="cls-33" d="M651.05,29.13c.64-.73,1.27-1.47,1.91-2.21,5.64-2.06,10.13-6,15.13-9.13,1.41-.88.78-1.94,0-2.89l.1-3.85c1,.5,2.55.73,3,1.54,3.08,6.19,8.89,4.95,14.06,5.39,4.86.4,10,0,13.08,5l-3,1.16c-3.21-2.86-7.13-2.93-11.08-2.68-3.69.23-7.46-.72-11.08.66l-2.1-.24c-5.27,1.39-9.24,4.95-13.45,8.09-2.76,1.41-4.87,5.1-8.77,2.53C648.51,30.66,649.79,29.9,651.05,29.13Z"/><path class="cls-34" d="M658.31,192.94a4.24,4.24,0,0,1-3.3-.66c-3.72-2.77-4.81-.52-5.34,2.8-1.2.06-1.69-.84-2.25-1.66-.83-1.46-.6-3.81.56-3.8,5.19,0,2.37-9.24,8.8-7.32,4.09,2.25,8.8,2.59,13.07,4.22,1.87.71,5,1.29,2.4,4.6a1.4,1.4,0,0,0,0,.86c-2.06,1.88-4,1.93-8.44.85C662.08,192.4,660.06,190.12,658.31,192.94Z"/><path class="cls-35" d="M621.88,10.59c0-6.2,5.87-6,9.28-8.57a2,2,0,0,1,.4,2.06c-.73,1.38-3.08,2.63.17,4.05,7.55,3.31,8.5,10.27,9.22,17.3-.79,2.19.11,4.79-1.69,6.72-2.82-.43-2.32-2.74-2.4-4.54-.13-2.78-.06-5.56-1.24-8.17-1-2.16-1.45-4.74-4.57-4.91a4.94,4.94,0,0,1-1.27.45,10.57,10.57,0,0,1-3.72-.2c-4-.71-8-.18-11.93-.36-2-.09-4,.26-5.74-1.12a1.14,1.14,0,0,1,0-1.57c3.73-.39,7.48-.05,11.21-.2C620.39,11.49,621.59,12.07,621.88,10.59Z"/><path class="cls-36" d="M602.09,186.92c-1-.14-2.6,0-2.74-.46-1.21-3.59-4.22-6.1-5.68-9.37-2.12-4.77-2.36-10.21-5-15-.93-1.71.14-4.51.31-6.81-.69-2.63.32-2.87,2.34-1.67,2.66,10.83,7.85,20.7,11.92,31A1.63,1.63,0,0,1,602.09,186.92Z"/><path class="cls-37" d="M621.88,10.59c-2,2.94-5,1-7.55,1.39a45.49,45.49,0,0,1-6.3.21c-2.55,2-5.72.46-8.82,1.52.69,1.63,2.53,1.41,3.43,2.36,1.26,1.12,2.38,2.28,1.2,4.1-1,1.3-.67,2.84-.74,4.32a2.55,2.55,0,0,1-1,1.75c-1.45.21-1.18-1.13-1.57-1.75.18,1.1.62,2.27.13,3.49-.61.89-1.32,1.53-2.5,1.06-.35-6.41-.58-6.81-9.31-16.53,7.58-1.73,15.12-1.28,22.64-1.4C615,11.06,618.47,11.68,621.88,10.59Z"/><path class="cls-38" d="M584.22,119.07c.47-.44,1.4-1,1.34-1.3-.94-4.81.71-9.17,2-13.66.26-1-.88-2.71.07-3.71,2-2.17,3.6-4.22,1.16-7.05a.49.49,0,0,1,0-.47c4-2.93,1.93-8.65,5.17-11.63,1.68-1.55-.68-3.33,1.12-4.32a3.1,3.1,0,0,1,1.91,1c1.9,2.18,1.58,4.25.42,6.85A86.18,86.18,0,0,0,590.86,107c-.66,4.3.24,9.95-4.19,13.4A2.64,2.64,0,0,1,584.22,119.07Z"/><path class="cls-39" d="M653.17,17.15c-1.19,1.21-2.89,1.18-4.34,1.76-2.56-1.33-7.32,1-7.42-4.43,5-5.15,9.63-10.81,18-9.8a8,8,0,0,0,4.55.46c.22,2.67-2.52,2.45-3.66,3.77C657.88,11.65,652.73,12,653.17,17.15Z"/><path class="cls-40" d="M648.13,62c-.07-1.62.4-3.21,2.24-2.93,2.72.41,4.7-1.14,7-1.88.37,2.57,2.33,1.66,3.84,1.79,3.95.35,7.31,1.67,9,5.6.39.9.6,2,1.69,2.27,3.38.85,3.49,3.41,3.35,6.14a2.06,2.06,0,0,1-3.28-.16c0-2.66-2.13-2.94-4-3.5-5.09-1.51-10.25-2.79-15.24-4.61C651,64.1,649.13,63.8,648.13,62Z"/><path class="cls-41" d="M672.12,72.26c.89.95,2,.75,3.16.72,5.38,1.29,4.82,6.19,6.07,10a3.06,3.06,0,0,1-4.42-1.49c1.4-2.39.17-3.76-2-4.51-7.94-2.81-15.68-6.21-23.92-8.14a8,8,0,0,0-7.06,1.3c-2.23,1-3.92.22-5.07-1.7-1-1.7-1.17-3.45.72-4.8a21.7,21.7,0,0,0,7.14.61c5.85-.58,11.33,1.73,16.7,3.79C666.45,69.18,670.16,69,672.12,72.26Z"/><path class="cls-36" d="M688.11,164c0,2.12-2.86,2-3,4-2,1.32-3.4.71-4.22-1.46.52-1.52,1.51-1.44,2.69-.82a90.67,90.67,0,0,0-15.35-7.38c-3.14-1.12.41,1.58-.84,1.64a3.79,3.79,0,0,1-2.9,2.16c-3.25-2.25-3-5.31-1.76-8.41.66-1.69,1.74-3.21,2.52-4.86.82-1.22,1.81-1.76,3.18-.8a8.19,8.19,0,0,1,2.1,3.65c1.88,5,7.2,5.34,10.93,7.79,2,1.35,4.58,1.93,6.33,3.84C687.91,163.59,688,163.8,688.11,164Z"/><path class="cls-42" d="M591.23,154c-1.42-.75-2.09-.18-2.22,1.29-1.25-1.39-3.8-2.05-3-4.59,1.16-3.72-.77-3.89-3.68-3.88-15.57.1-31.14,0-46.7.07a33.15,33.15,0,0,0-4.39.56c.65-2.05,2.4-1.45,3.78-1.46q25.25,0,50.49,0a10.65,10.65,0,0,1,4.83,1.07C590.8,149.36,592.15,151.54,591.23,154Z"/><path class="cls-43" d="M637.28,207.12c-7,1.9-13.52,1.42-19.27-3.52a5.22,5.22,0,0,0-1.85-.57c-1.66-1-1.5-2.27-.71-3.7.69-1,1.8-2.1,2.78-1.31,2.76,2.22,7.29,1.23,9.06,5.1.14.07.2.31.42.29a3.37,3.37,0,0,1-1-1c.23-2.44,1.92-2.6,3.4-1.61a8.54,8.54,0,0,0,3.38,1.31A12.59,12.59,0,0,0,637.28,207.12Z"/><path class="cls-44" d="M622,54.86l5.11,2c.33,3.17-.37,5.31-4.28,4.48-2.18-.46-4.45,3-6.69-.26-.58-.82-.33.5-.55.76-2.54,3-4.12,1.82-5.34-1.16a3.6,3.6,0,0,1,.86-2.83C614.5,56.05,617.72,53.54,622,54.86Z"/><path class="cls-45" d="M668.15,149.06c-.74-1-1.47-1.06-2.18,0-3.48-.84-2.76-2.55-.93-4.49a2.87,2.87,0,0,1,2.38-.32c7.3,3.34,15,5.84,21.62,10.58l2.17.33c-1,1-3.13.8-3.09,2.91C680.34,157.56,674.32,153.15,668.15,149.06Z"/><path class="cls-46" d="M653.17,17.15c-.79-.95-2.61.42-2.95-1.12s1.18-1.85,2.06-2.5c3.85-2.83,7.75-5.6,11.63-8.39,2,.76,4,1.4,4.18,4-3.74-.89-5.4,2.79-8.3,3.84C657.39,13.88,655.36,15.73,653.17,17.15Z"/><path class="cls-47" d="M677.15,81.18l4.2,1.8,1.86.82c.11.87.91,1.88-.48,2.45a2.65,2.65,0,0,1-2.84.22c-8.59-4.38-17.79-7.28-26.6-11.12a3,3,0,0,1,2.93-3.1,75.78,75.78,0,0,1,20,7.26A2.22,2.22,0,0,1,677.15,81.18Z"/><path class="cls-48" d="M677.36,186.07c-.12.6-.23,1.19-.35,1.79-5.58-.44-10.47-3-15.47-5.16a5.51,5.51,0,0,1-2.78-2.68c-.75-2.14,0-4.09,2.36-3.46,5.74,1.52,11.91,2.34,16.23,7.16A2.91,2.91,0,0,1,677.36,186.07Z"/><path class="cls-49" d="M662.24,182c4.76,2.39,10.23,3,14.77,5.91-.1,3.26-2.66,2.91-4.76,3.26.85-3.05-1.74-2.9-3.36-3.5-4.22-1.55-9.1-1.3-12.63-4.69-.27-1.49-.38-2.94.9-4.08C659.16,179.38,659.84,182.08,662.24,182Z"/><path class="cls-50" d="M659.36,4.68c-7,.93-11.82,5.56-17,9.56-2.07-1.94-1-4-.33-6.13a4.45,4.45,0,0,1,.88-1.34c3.62-1.44,7-3.48,10.62-4.89,2.1-.54,4.2-1.27,6.25.16C660.8,3.09,660.32,3.92,659.36,4.68Z"/><path class="cls-51" d="M584.22,119.07a2.32,2.32,0,0,1,2,1.09c2.32,2.82,3.71,6,2.35,9.59-1.1,2.9,1.78,5.39.46,8.19l-4.05-.07c-1.59-3.09-3-6.07,0-9.31,1.17-1.25,0-2.78-.83-4.06C583,122.7,582.61,120.86,584.22,119.07Z"/><path class="cls-52" d="M589.71,30.12a4,4,0,0,1,0-1.47c.71-1.75-1.59-5,1.68-5.21,2.82-.2,3.16,2.84,3.56,5.1a6.62,6.62,0,0,1,.08,2.93c-.69,2.23-.67,5.77-3.65,5.63-3.85-.17-.94-3.66-1.66-5.51a4.51,4.51,0,0,1,0-1.47Z"/><path class="cls-53" d="M596.18,78l-1.1-1.11c3.14-4.83,5.17-10.44,10-14.1a2.46,2.46,0,0,1,1.66,2.4c-.11,5.1-4.81,8-6.18,12.54C600,79.45,597.74,79.12,596.18,78Z"/><path class="cls-54" d="M668.15,149.06l20,9c.76,2,2.79,3.95,0,5.93l.09,0c-3.63-4.33-9.38-5.21-13.69-8.43-1.53-1.14-3.75-1.44-4.35-3.67C669.51,151,668,150.59,668.15,149.06Z"/><path class="cls-55" d="M598.17,29l1.75-.95c3.36,5.12,1,9.78-1.22,14.43-1.05,2.23-3.32,3.75-3.75,6.36-2.05.49-3.67-.88-6.16-1.44C597.23,43.68,597.25,36.15,598.17,29Z"/><path class="cls-56" d="M595,48.88c-1-1.76-.13-2.93.94-4.38,3.6-4.87,5.31-10.3,4-16.41.12-1.4.23-2.8.35-4.28,1.48.4.9,1.82,1.69,2.41,2.8,3,1.15,6.64,1.53,10-1.11,4.22-1.72,8.77-6.55,10.74-.79.45-.77,1.18-.64,1.93Z"/><path class="cls-49" d="M658.31,192.94c-.57-.57-1.62-1.13-1.62-1.7,0-1.55,1.41-1.07,2.18-.89,2.88.65,5.7,1.54,8.57,2.21,1.64.39,3.47,1.63,4.83-.58.11.12.3.24.32.37.5,4.22-6.27-.51-5.43,4.54s-3.57,3.35-6,4.15c-1.21-2.13.06-2.59,1.79-2.45,1.43.12,2.53-.07,3.06-1.56C664.85,193,660.92,194.23,658.31,192.94Z"/><path class="cls-57" d="M681.12,166.27c.9,1.56,2.36,1.87,4,1.77a.85.85,0,0,1,.24.8c.32,1.41-.67,1.75-1.68,2.08-5.71-.78-10.13-4.52-15.27-6.6-.92-.63-2-1.09-2.91-1.69l-.44-.49A2,2,0,0,1,667.2,160,17.14,17.14,0,0,1,681.12,166.27Z"/><path class="cls-58" d="M691.14,44.06l1-.17,1.92.08c-.93,2.33-2.73,3.11-5.13,3.06-3.49-.07-7,.24-10.48-.09-2.68-.25-4.2.93-5.53,2.87,1-1.79-2.49-4.53,1.21-5.76A59.2,59.2,0,0,0,691.14,44.06Z"/><path class="cls-59" d="M677.36,186.07c-.13-.64-.26-1.29-.38-1.93-.22-2.24-1.5-3.43-3.62-4.11a30.46,30.46,0,0,1-8.85-4.37c-2-1.46-2.21-2.94.74-3.58,5.71.64,10.36,3.78,15.23,6.42,1.6,1.65,1.79,3.19-.35,4.55C677.94,182.9,678.45,185.22,677.36,186.07Z"/><path class="cls-60" d="M680.13,183.05c.51-1.31,1.55-2.63,0-3.94-.09-1.6-1.84-2.18-2.24-3.59.27-1.5-.81-2.67-1-4.07a1.43,1.43,0,0,1,.77-1c1.56-.57,2.82.21,4.13.88s1.12-.47,1.27-1.16c.93-.19,1.87-.35,2.34-1.34,2.39,3,2.47,5.44-1.73,6.52-2.58.67-1.23,2.1-.91,3.32C683.34,181.05,683.28,182.94,680.13,183.05Z"/><path class="cls-61" d="M637.28,207.12c-4.44.7-4.27-2.32-4.22-5.23,1.21-3.52,3.64.2,5.26-.88,2,4.76,6.37,3.64,10.09,4.16C644.77,206.2,640.78,205.24,637.28,207.12Z"/><path class="cls-62" d="M468.14,147c4.8-.92,9.66-2.77,14.15.93-4.43,2.81-9.16,1.36-13.81.86C468.3,148.76,468.25,147.61,468.14,147Z"/><path class="cls-63" d="M196,148.16c-3.61-1.94-7.51-.78-11.27-.94-5.82-.26-11.65-.17-17.48-.23,1.13-1.42,2.74-.91,4.16-.92,9.76-.06,19.52-.1,29.28,0,1.48,0,3.41-.87,4.31,1.29C202,147.18,198.87,146,196,148.16Z"/><path class="cls-64" d="M615.93,199.67c-.24,1.14-.61,2.29.23,3.36-5.12-2.07-8.82-5.93-12.47-9.87a3.69,3.69,0,0,1,2-2c4.58-1.84,4.17,1.77,4.74,4.32,1.12,2.46,2.43,2.27,3.88.29C616.69,196.33,615.86,198.19,615.93,199.67Z"/><path class="cls-34" d="M666,197c.22,1.89-.31,2.95-2.46,2.24-1.65-.55-2.59-.15-2.39,1.77-.78,1-1.4,2.25-3,2,1.21-1.62,2-2.86-1-3.59-1.77-.43-3.91.23-5.82-1.44C656.4,195.32,661.39,198.92,666,197Z"/><path class="cls-65" d="M635.17,2c5.28-1.43,10.58-.32,15.87-.1l.33.65c-2.88,3.07-7.61.83-10.57,3.68-1.9-1-4.29,0-6.09-1.48A2.36,2.36,0,0,1,635.17,2Z"/><path class="cls-66" d="M606.1,65.19l-1.05-2.36c3-.44,3-4.56,6.05-5l.09,3c-.71,1.33.45,3-.69,4.21C609.11,66.59,607.62,68.11,606.1,65.19Z"/><path class="cls-67" d="M606.46,191.78l-2.77,1.38c-1.55-1-1.62-2.24-.47-3.68s-.27-1.92-1.13-2.56l.87-1.61C608.14,185.29,606.89,188.76,606.46,191.78Z"/><path class="cls-68" d="M635.17,2c0,.94,0,1.88-.07,2.83.49,2.37-1,3.06-2.81,2.74s-2.11-1.79-1.21-3.4c0-.71,0-1.42.08-2.14Z"/><path class="cls-2" d="M234,185.39a105,105,0,0,1,16.64,0A88.1,88.1,0,0,1,234,185.39Z"/><path class="cls-2" d="M206.75,185.34l15.8,0A73.21,73.21,0,0,1,206.75,185.34Z"/><path class="cls-65" d="M659.74,2l-6.56,1c-.47-.5-1.19-.35-1.74-.65l-.4-.52C654,.47,656.9-1.61,659.74,2Z"/><path class="cls-69" d="M798.22,166.24c-1.12,2.89-2.9,5.09-6.08,5.81C794.15,170.1,795.71,167.67,798.22,166.24Z"/><path class="cls-70" d="M606.1,65.19c2.3,2.25,3.38.7,4.34-1.36.44-.94-1.1-2.37.75-2.93,4.15,4.36,3.17-1.25,4.62-2.41,1.13,2.56,2.48,4.68,5.16,1.47.49-.58,1.27-1.07,1.63-.7,4.39,4.55,3.07-1.5,4.5-2.38,1.13.69,1.12,1.89,1.37,3s.24,2.82,1.94,3c1.49.16,1.67-1.22,2.15-2.24,1.32-2.77,1.71.17,2.54.44-.14,1-1.78,1.89-.26,2.89a2.25,2.25,0,0,0,2.71.1c.85-.61,1-2.16,2.55-1.81.59.52.67,1.06,0,1.59-.86,4.74,0,5.87,3.76,5,.8-.47,1.22,0,1.6.62,0,2.86,1.6,4.75,3.69,6.38,2.15,2.77,1,8.05,6.54,8.35,1,0,0,1.29-.19,2-.48,1.44-.74,2.88.48,4.14.41,1.34,1.33,1.71,2.68,1.52,1.87-.26,1.72,1,1.48,2.2-1.69,2.28-2.6,4.59-.3,7,.74,1.44,2.65.3,3.48,1.57.84,3.34-.93,5-3.84,5.9-2.64-.32-2.5-2.68-3.15-4.41-2.26-6-4.81-11.86-10.75-15.3-6.65-5.16-13.33-4.08-20-.09-1.9.53-2.75-1.26-4.46-2.1-.14,2.66,1.58,5.23-.16,7.58-1.54,2.35-2.46,5.07-4.3,7.24-1.32,1.25-3,.29-4.44,1.18,3.37-1.32,7.16,0,10.4-2,2.29-2.59,3.87-5.69,6.4-8.13,4.11-4,8.7-5.76,14.36-4.29,4.23,1.27,6.69,4.36,8.94,8,5.28,8.53,6.1,18.28,8.2,27.71-.6,4.66,1.62,9.65-1.58,14-16.86,0-33.72-.13-50.58,0-3,0-4.62-.75-4.92-3.76-3.18-4.35-1.78-9.34-1.33-13.89,1.21-12.11,3.86-23.86,10.13-34.63,3.23-5.57,7.72-9.85,12.56-14.81a10.87,10.87,0,0,0-9.92,2.88c-9.24,8.19-13.67,19-16.53,30.61-.77,3.13-.29,6.76-3.28,9.11-1.36,6.31-1.1,12.73-.73,19.08.24,4.26-.8,6.21-5.26,5.41-1.32-3.44-3.29-6.58-.93-10.63,1.33-2.27-3.17-4.19-1.88-7.15.27-.19.74-.34.78-.56.91-5.13,2-10.25,2.48-15.43.12-1.27-.22-2.38.78-3.44,1.69-1.8,2.84-3.69.89-6.1-1-1.29.28-1.56,1.08-2.06,1.48-.93,2.79-2.37,2.4-4-.51-2.14.14-3,1.78-4.33,2.35-1.85.84-4.15-.27-6.19,1.39-.23,3.88.35,3.83-1.26C599.85,71.6,605.4,69.71,606.1,65.19Z"/><path class="cls-71" d="M606.46,191.78c-2.14-1.63.83-6-3.5-6.47-1.93-.28-3-1.32-2.8-3.36.23-2.27.27-4.39-2.52-5.22-.4-.11-1-.67-.95-1,.43-6-3-10.46-5.55-15.39-.86-1.66,0-4.2.09-6.35-.16-2.33-3.18-4.3-.9-6.95,4.59-1.77,5.82,1.18,6.64,4.71,3.23,4.17,3.53,9.5,5.6,14.16A60.32,60.32,0,0,0,621.3,190c4.54,3.46,8.23,3.66,14,.59-13-2-18.49-12-24.06-21.86-3.23-5.68-4.3-12.2-6.76-18.19a3.18,3.18,0,0,1,.75-3.69c16.81-.77,33.62-.11,50.43-.36,2.29,0,3.92,1,3.22,3.18-2.16,6.71-2.66,14-7.87,19.67a11.45,11.45,0,0,1-10.63,4c-7.11-1.46-11.28-6.17-13.92-12.58a35.67,35.67,0,0,0-4.6-8.16,7.37,7.37,0,0,0-1.83-1.78,6.92,6.92,0,0,0-3.81-.47c-1.83.09-3.83.34-4.15,2.53s2.1,2,3.3,2.89c2.08,2.32,3,5.31,4.5,7.94,1.2,1.92.84,4.11,1,6.24,1.35.31,2.47-1,3.78-.39,6,4.77,13,5.27,20.2,4.2a6,6,0,0,1,4.62,2.36c-1.21-2-1.94-3.19-.47-4.44,6.94-6,7.89-14.63,10.18-22.68a3.65,3.65,0,0,1,1.09-2.14c0-1.16,0-2.32,0-3.49.54-6.1-.57-12.19-.09-18.28a3.69,3.69,0,0,1,1.3-3c2.08-1,2.92.44,3.74,1.91,3.14,1.69,2.44,3.73.51,5.86-2.68,3-5,5.6,1,7.83,3.2,1.19-.24,2.71-.6,4.09-.8.92-.24,2.25-.94,3.2-1.52,1.71-1.23,3.07.79,4.09a3,3,0,0,1-.78,3.58c-3.59,3.11-2.48,6.28-.13,9.48l-.11.07a1.3,1.3,0,0,1-.85,2c-3.87,1-3.38,3.44-2.18,6.17.54,2.15,0,3.92-2.1,4.86-1.72.78-2,2.34-2.61,3.82-.21,1.33.39,2.86-1,3.91-1.74-.72-3.53-.26-3,1.65,1.09,3.83-.57,4.58-3.8,5a2,2,0,0,0-1.3,3.44c1,2,0,2.17-1.74,2.13-2.93-.07-3.27,1.65-2.39,4-.08,1.45.18,3.36-2,1-1.55-1.68-3.43-3.54-3.75.84l-.6,2.9c-1.7-.53-1.68-4.88-4.66-2-.94-.63-.72,2.7-2.27.57-1.22-1.66-2.81-2.21-3.77.45h0c-.61-.47-1,1.91-1.52.21-.4-1.46-1.18-3.1-2.4-2.49-2.51,1.25-3.18-.2-4.41-1.73-1-1.28-2.05-.28-2.77.77-1.48-.76-.2-2.89-1.79-3.59-1.66-.2-3.33.48-5-.09C607.66,195,610.94,190.88,606.46,191.78Z"/><path class="cls-72" d="M595.06,113.45c2.08-10.1,4.16-20.15,9.45-29.24a41.72,41.72,0,0,1,11.73-13.35c3.56-2.54,7.45-2,11.71-.7-19.24,15-24.36,35.44-24.45,58,0,2,0,4-.07,6,.12,3.81-2.25,3.94-5.21,3.9-3.32,0-3.17-2.12-3.17-4.33Q595.06,123.6,595.06,113.45Z"/><path class="cls-25" d="M605.19,148c3.56,11.19,6.72,22.52,14.64,31.75,4.93,5.74,10.41,10.08,18.7,9.73a12.84,12.84,0,0,1-17.41,2.12c-13.69-9.94-20.85-23.68-24.14-39.85-.79-6,2.9-6.1,7.16-5.5C604.9,146.6,604.64,147.56,605.19,148Z"/><path class="cls-73" d="M605.19,148a1.85,1.85,0,0,1-1.05-1.75c17.58-.09,35.17-.2,52.76-.24a14.63,14.63,0,0,1,3.35.82c-1.7,8.78-2.34,18-9.61,24.58-.68.62-2.88,1.51-.2,3.06,1.59.91,1,3.33-.52,4.14-2.7,1.47-1.88-1.12-2.07-2.3-.3-1.81-1.83-.9-2.73-1.36-1.47-2-5.27.66-6-2.95,7.82,1.38,11.88-2.75,14.58-9.47,1.67-4.16,2.89-8.42,4.14-12.69.57-2,0-3.08-2.38-3.07-16.07.07-32.15,0-48.23.11C606.58,146.91,605.89,147.63,605.19,148Z"/><path class="cls-74" d="M251.32,137v-8.67l1.19-.36,4.72,9.08C255.24,138.85,253.27,138.39,251.32,137Z"/><path class="cls-75" d="M661,124c.22,6.48,1.21,13-.73,19.38-.47-1.8,0-3.83-1.36-5.42,1.15-4.95-.1-9.94.27-14.91C660.24,122.52,660.67,123.18,661,124Z"/><path class="cls-76" d="M172.08,136.15c2.4-2.15,1.77-6.48,5.5-7.68-.06,2.11-.1,4.23-.21,6.34-.07,1.23.29,2.91-1.57,3C174.4,137.93,172.34,138.83,172.08,136.15Z"/><path class="cls-77" d="M51.24,137.14v-9.81a37.64,37.64,0,0,1,4.95,10.4C54.48,138.06,52.77,138.33,51.24,137.14Z"/><path class="cls-78" d="M98.85,136.22c1.19-2.53,2.37-5.07,3.58-7.67,1.75,1.06.57,2.72,1.12,3.92-1,1.89,1.6,5.92-3.27,5.47C99.24,137.84,99.07,137,98.85,136.22Z"/><path class="cls-1" d="M789.5,140.06c-.89,3-2.33,4-4.9,4-13-.1-25.91,0-38.86-.08-1.13,0-3,.67-3-1.38,0-1.32,1.66-2.85,2.77-2.11,3.8,2.55,7.13-.12,10.67-.26C767.12,139.78,778.08,140.06,789.5,140.06Z"/><path class="cls-79" d="M692.12,142.11l-1.2.15c-6.49-1-11.55-4.38-15.75-9.24-1.2-2.2-3.76-2.49-5.51-3.9-.65-.52-1.43-1.3-1-2,.61-1,1.78.16,2.67-.2l20.07,11.47C691.6,139.62,693.43,140.56,692.12,142.11Z"/><path class="cls-80" d="M631.08,4.16c.12,1.08-.16,2.45,1.28,2.8,1.67.4,2.1-1.07,2.74-2.14C637,4,638.9,2.9,640,5.86c0,.21-.05.41-.08.62.12,2.36,2.93-.09,3.29,1.83-.68,1.92-1.32,3.85-.86,5.93-.41,2.46.84,3.17,3,2.8,1.67-.28,3.28-.52,3.49,1.87-.26.4-.53.79-.78,1.2-3.85,6.22-3.73,6.56,3,9,.07,1.47-1.32,1.87-2,2.78-.5,2.27-4.34,3-2.93,6.15l2.92,3c1.23,1.22,1.05,3-.26,3.28-5.34,1-3.45,5-3.6,8.08-.53,1.43-1.2,2.61-3,1.6-1.65-1-3.9-4.39-4,1-.52,1.18.61,2.92-.81,3.63s-1.84-.93-2.6-1.72c-3.82-3.94-2.44,2.14-4.5,2.1,1.53-2.22-4.71-4.35.13-6.76C639.22,45.2,640,35.23,640.16,25c-1.73-6.51-1.42-14.39-10.68-15.83-1-.16-1.11-.94-1.14-1.84C628.3,5.44,628.93,4.18,631.08,4.16Z"/><path class="cls-81" d="M675.23,34.84c0,1-.05,2-.07,3-3,4.59-8.24,6.24-12.57,9s-9.19,4.4-14,6c-1.36.46-3.32,1.53-3.88-1.2-1.83-6.45,3.43-7,7.26-8.75a17.66,17.66,0,0,1,8.62-4.27c3-.5,4.87-3.07,7.45-4.35,1.86-.92,3.56-2.31,5.86-1.87A2,2,0,0,1,675.23,34.84Z"/><path class="cls-82" d="M675.23,34.84,674,33.11c-.46-1.15.32-1.61,1.15-2l8.94,0c3,1,6.15.24,9.23.45,1.76.12,3.81-.3,3.8,2.48-.18,1-.4,2.36-1.46,2.36C688.82,36.37,681.82,38.19,675.23,34.84Z"/><path class="cls-83" d="M645.12,52.13c5.82.43,10.39-2.9,15.15-5.33,5.14-2.63,9.94-5.93,14.89-8.93,2.06,3.51-2,3-3,4.51C665,47.7,656.68,51,648.57,54.59c-2,.87-4.43,1.33-6.42-.54,1.32-.08,1.81-1,2.12-2.09C644.63,51.6,644.92,51.64,645.12,52.13Z"/><path class="cls-84" d="M673.1,22.09c-1-2,.29-2.17,1.8-2.14,5.4.11,10.8.23,16.2.3,2.6,0,3.87,1.39,4.16,3.86l0,0a46.71,46.71,0,0,1-18.16-1Z"/><path class="cls-85" d="M661.13,40a18.87,18.87,0,0,0-8.07,3.68c-.48.92-1.14,1-1.84.31-1-1-.78-2,.21-2.84L663,34a2.3,2.3,0,0,1,2.1-.19C665.75,37.09,663.09,38.32,661.13,40Z"/><path class="cls-86" d="M657.07,29c3.42-3.62,8-5.6,12-8.31,1.28-.86,1.68.09,1.91,1.15-3.35,3.55-7.72,5.66-11.74,8.27C658.06,30.68,657.11,30.75,657.07,29Z"/><path class="cls-87" d="M657.07,29c.45.92,1.37.93,2.19,1.11-3.64,3.87-9,5-13.15,7.94C643.82,34.45,646,33,649,31.91,652.64,33.51,654.5,30.28,657.07,29Z"/><path class="cls-88" d="M661.13,40l4.43-5.89c1.92-1.82,3.59-4.07,6.63-4.05.48,1.83,2.29-.23,3,1l-1.15,2C668.92,33.92,665.87,38.54,661.13,40Z"/><path class="cls-89" d="M672.19,30.06c-2.34,1.13-3.8,3.73-6.64,4.05L663,34l13.18-9.65C675.77,27.91,673.65,28.74,672.19,30.06Z"/><path class="cls-23" d="M651.43,41.15c-.16,1.3-.45,2.68,1.63,2.53A1.79,1.79,0,0,1,651.25,45c-5-.13-6.37,2.78-6.13,7.12a2.07,2.07,0,0,0-.85-.16,10.12,10.12,0,0,0-.41-2.44c-1.36-3.18-1-5.19,3.06-5.12,2.4,0,2.7-1.38,2.11-3.31Z"/><path class="cls-33" d="M677.07,23.18l18.16,1C689.09,25.58,683,26.35,677.07,23.18Z"/><path class="cls-88" d="M697.13,34c-1.21-2.83-3.81-1.76-5.91-2.07-2.36-.36-4.86.37-7.12-.86,3.64,0,7.28-.13,10.92,0C696.78,31.1,698.45,31.6,697.13,34Z"/><path class="cls-90" d="M640.11,63.85c0-.53,0-1.06,0-1.59l8-.27c7.54,2.28,15.1,4.51,22.61,6.86,1.59.5,5,.66,1.38,3.41-7.66-2.25-14.67-6.58-22.91-7-1.48-.09-3-.72-4.14.47C642,68.84,641.1,66.25,640.11,63.85Z"/><path class="cls-91" d="M691.14,44.06a31,31,0,0,1-17,0A106.83,106.83,0,0,1,691.14,44.06Z"/><path class="cls-92" d="M644.05,199.15c-1.54-4.15-.87-5.07,3.23-4.54,1.58.21.57-1.07.9-1.58.5.68,1,1.36,1.49,2.05.33,2.13-.75,2.13-2.33,1.63C645.19,196,643.92,196.67,644.05,199.15Z"/><path class="cls-46" d="M668.05,14.9c1-.05,2.08-1.55,3,0a2,2,0,0,1-.43,2.68C665.15,21.14,660,25.16,654,27.82c-.18.08-.69-.58-1-.9Z"/><path class="cls-93" d="M665.24,124l-3.13-2c-1.48.16-1.48-.84-1.46-1.85,1-1.92,2-3.88,4.36-4.44,1,.51,1.13,1.45,1.16,2.44-.62,1.51-2.44,3.31,1.18,3.56,1.28.08,1.41,1.58,1.71,2.66C667.76,124.5,666.76,121.83,665.24,124Z"/><path class="cls-94" d="M666.17,118.2c-1.28-.32-.67-1.43-.92-2.17a.62.62,0,0,1,.23-1.07c2.38-.2,3.63,1.29,4.66,3.11C668.82,118.22,667.44,116.59,666.17,118.2Z"/><path class="cls-95" d="M653.29,75.35c7.88.74,14.7,4.57,21.81,7.53,2.57,1.06,5.09,2.24,7.63,3.37s2.78,3.25,1.94,6.06c-6.78-3.17-13.32-6.24-19.86-9.28-2.4-1.12-4.78-2.15-7.56-2.06C652,81.12,651.49,80.28,653.29,75.35Z"/><path class="cls-96" d="M683.16,101c-8-4.67-16-9.38-25-12-1.25-1-2.19-2.09-.75-3.62s3.09-1,4.58-.29c6.6,3,13.16,6.11,19.72,9.19a11.87,11.87,0,0,1,2.6,1.42c1.1.89,3.79.29,3.09,2.87C686.88,100.65,685.18,101.26,683.16,101Z"/><path class="cls-97" d="M645.19,70.14l-1.32-1.29c1.3-2.67,4-1.69,5.64-1.4,9.81,1.69,18.94,5.59,28.09,9.37a3,3,0,0,1,2,3.54c-.2,1.31-1.51.88-2.46.82a102.6,102.6,0,0,0-22.74-8.25c-2.16-1.8-4.16.1-6.23.28S645.64,71.7,645.19,70.14Z"/><path class="cls-47" d="M645.19,70.14c1.92.12,1.78,2.26,3,3.07l1,2.64C645.55,75.54,645.1,73,645.19,70.14Z"/><path class="cls-98" d="M602.14,37,602,26.22c.11-.77.23-1.54.35-2.3,2.2.44,2.38,2.93,4,3.93a2.39,2.39,0,0,1,.14,1.32c-.42,1.5-1.73,3,0,4.51,1.82-.29,1.5-2.58,3-3.08,4.55.68,1.29,4.12,2.15,6,0,.74,1-.2.4,0-.27.11-.47,0-.38-.3,1.09-3.6-.73-7.16-.13-10.76a1.41,1.41,0,0,1,1.21-.88c4.38,1.15,8.8.91,13.26.67,3.54-.19,7.25-.73,10.29,2a1.3,1.3,0,0,1-.69,1.33c-4.51,1.51-9.16.6-13.74.76-5.79.21-5.83.15-6.46,6.14A2.44,2.44,0,0,0,617,38.21c2.16,1.19,1.44,2.42-.14,3.54-.91.64-2.3.2-3.26,1.76,3.81.34,7.39,0,11,.21,2.06.1,4.39-.48,5.84,1.74-.06.23-.12.46-.19.69-5.61-.07-11.24.11-16.82-.32-2.63-.21-4.07,1.93-6.34,2.05a2.87,2.87,0,0,1-.61-3.19C609,39.81,606.29,38.06,602.14,37Z"/><path class="cls-99" d="M636.1,18c2.21,2.61,2.14,5.72,2.1,8.88,0,1.77-.49,3.66.76,5.27,2.31,6.65-2,16.38-7.84,17.73-1.69-.9-1.25-2.35-1-3.75l.05-.4a9.06,9.06,0,0,0,4.46-7.5,14.43,14.43,0,0,1-.12-2.08c.51-2.59-.28-5.41,1.41-7.77.08-.25.16-.49.23-.73-.44-4.2-3-5.72-7-6.13-3.06-.32-6.37.61-9.18-1.38a1.56,1.56,0,0,1,.1-1.35c1.84-1.41,4-1.22,6.08-1,2.9.26,4.54-.75,4.93-3.66V14C634,13.88,634.62,16.47,636.1,18Z"/><path class="cls-25" d="M602.14,37c7.66-.55,8.05,0,5.49,7a20.77,20.77,0,0,0-.64,3.81c-3.36-.19-6.88,1.36-10-.93A19.52,19.52,0,0,0,602.14,37Z"/><path class="cls-100" d="M631.12,49.9c6.65-4.13,7.76-10.71,7.84-17.73.69-2.33-.82-5,1.2-7.13a28.08,28.08,0,0,1-4.57,23.87c-1.26,1.79-2.81,3.27-5.21,3.37-1.8-.48-3.94-.33-5-2.54C627.45,48.25,629.23,50.73,631.12,49.9Z"/><path class="cls-93" d="M659,108.1a8.17,8.17,0,0,0,4.34-5.45c.53,1.13.63,2.44,2.2,3,7.67,2.74,14.17,7.8,21.54,11.12,3.36,1.52,4.41,3.21,2.12,6.33-6.38-2.76-12.13-6.64-18.21-9.95-2.1-1.15-4.17-3.83-7-1.1a4.57,4.57,0,0,1-4.54,1.24C657.75,111.71,657.75,110,659,108.1Z"/><path class="cls-71" d="M660.09,113.17c1-1.55,2.59-.86,3.93-1.12,1,.7,1.09,1.88,1.46,2.91-.08.35-.15.71-.23,1.07-1.62,1.09-2.14,3.32-4.14,4C657.64,118.22,658.6,115.73,660.09,113.17Z"/><path class="cls-101" d="M659.85,101.08c-2.93-2.48-3.19-4.84.3-7,10.21,2.45,19,8,28.08,13,2,1.08.29,3.93-2.06,5L659.42,97C658.72,98.11,659.2,99.59,659.85,101.08Z"/><path class="cls-102" d="M675.17,133l15.75,9.24c-1.1,3.69-2.93,4.49-6.48,2.38a100.21,100.21,0,0,0-17.29-8.6c-1.53-.55-2.45-1.15-1.91-2.75.63-1.82,1.81-3.14,4-2.68S672.84,133.08,675.17,133Z"/><path class="cls-103" d="M665.18,145c-.78-1.39-2-2.91.94-3.2,1.28,1.53,2.75-.48,4.07.22,7.25,2.1,14.17,4.78,18.9,11.16,0,.56,0,1.12-.05,1.68-6.32-1.8-12-5-17.86-7.89C669.28,146,667.49,144.71,665.18,145Z"/><path class="cls-104" d="M689.09,153.17c-5.74-4.67-12.66-7.35-18.9-11.16-.42-2.88-.28-3.16,1.17-2.4,6,3.15,12,6.4,17.87,9.82C690.8,150.36,690.52,152,689.09,153.17Z"/><path class="cls-105" d="M631.12,14.11c2.27,5.23,2.27,5.21-3.57,5-2.46-.08-4.93-.06-7.39-.08-3.4,2-6.64,2-9.65-.77-1.83-3.28-1.06-4.95,2.9-4.73,4.58.26,9.19-.46,13.75.41Z"/><path class="cls-99" d="M627.16,14c-4.4,0-8.8.05-13.18-.16-3.44-.17-4.58.85-2.78,4.07a15.29,15.29,0,0,1,1.69,4.95,3,3,0,0,1-.41,2.19,4.23,4.23,0,0,0-.58.25c-.81.79.76,3.42-2,2.68-1.3-2.29-1.17-5.06-2.48-7.35a14.57,14.57,0,0,1,.36-7c.16-.17.33-.33.5-.5C614.54,13.4,620.92,12,627.16,14Z"/><path class="cls-106" d="M602.28,16.88c-2.39-.66-5.07-.91-5.86-4.69H608a3,3,0,0,1,.2.89l0,0C606.92,15.43,606.77,19.56,602.28,16.88Z"/><path class="cls-107" d="M636.1,18l-5-4c0-.69-1.14-2.41.7-1.52A7.77,7.77,0,0,1,636.1,18Z"/><path class="cls-108" d="M608.16,20a8.09,8.09,0,0,1,1.8,7.8c-1.12,1.37-2.37,1.25-3.69.31-3.41.54-2.95-2.53-4-4.23,0-1.42-2.59-3.33.78-4.12C604.81,19.1,606.53,18.56,608.16,20Z"/><path class="cls-35" d="M608.16,20l-5.07-.23c1.21-1.39-.59-1.94-.81-2.93,3.85,1.68,3.66-3,5.93-3.78C608.19,15.41,608.18,17.72,608.16,20Z"/><path class="cls-109" d="M668.29,64.88c-6.23-.43-12.06-2.44-17.93-4.3C656.11,59.64,663.88,61.32,668.29,64.88Z"/><path class="cls-110" d="M681.12,166.27,667.2,160a19,19,0,0,1-2.65-2.12,2,2,0,0,1-.16-1.84c.49-1,1.28-.46,2-.1,5.18,2.46,10.41,4.84,15.56,7.37,1,.5,3,.8,2.32,2.51C683.84,167,682.22,166.18,681.12,166.27Z"/><path class="cls-111" d="M670.16,152c4.9,2.63,9.78,5.28,14.69,7.9,1.74.93,3.69,1.64,3.35,4.2-6.54-2.54-12.48-6.23-18.55-9.68C667.92,153.41,667.33,152.22,670.16,152Z"/><path class="cls-112" d="M627,202.91c2.27-1,3,.27,3.14,2.22.06.9-.36,1.69-1.39,1.61-2.75-.24-1.28-2.5-1.74-3.83Z"/><path class="cls-60" d="M657.21,179c-1.42-2.27-1.91-4.25,1.62-4.84,2.46-.41,2.7-2,2.12-4l.5-.44c1.88.25,3.44.9,3.79,3-1.36.26-2.59.72-.5,1.78,3.51,1.77,7,4,10.73,4.83,4.12,1,3.33,2.4,1.51,4.71-4.8-3.22-10.44-4.45-15.71-6.55a2.16,2.16,0,0,0-1.77.06,1.45,1.45,0,0,0,.11,2.17,23.74,23.74,0,0,0,2.63,2.13C659.66,182.53,658.1,181.35,657.21,179Z"/><path class="cls-113" d="M651.44,2.41a1.43,1.43,0,0,1,1.74.65c-3.29,1.37-5.74,4.79-9.9,4.08-1.41.38-3,1.24-3.32-1.27h0a5.52,5.52,0,0,1,6.27-2.92A7.15,7.15,0,0,0,651.44,2.41Z"/><path class="cls-65" d="M640,5.87c.78,1.26,2.22.84,3.32,1.27,0,.39-.07.78-.1,1.17a2,2,0,0,0-2.22.47c-.81.72-1.88,2-2.77.49C637.2,7.6,637.62,6.1,640,5.87Z"/><path class="cls-114" d="M683,170.18c.77.92,2.85,1.3,1.83,2.95-.86,1.42-2,0-3-.42-1.52-.58-3-1.27-4.5-1.91-4.26.19-7.44-2.24-10.43-4.7-1.77-1.45-2.5-3.41,1.25-3.12Z"/><path class="cls-60" d="M668.18,163c-2.73.63-1.9,1.68-.24,2.63,3.11,1.78,6.27,3.46,9.41,5.19l-.31.38c-2.26,1.58-4-.21-6-.84-2.71-.86-4.88-3.56-8.17-2.36a5.9,5.9,0,0,1-1.49,1.87l-.45.36c-3.85-5.26,1-6.15,4-8C666.12,162.09,667.33,161.77,668.18,163Z"/><path class="cls-115" d="M661.4,169.85c.15-.56.3-1.12.46-1.67A23.71,23.71,0,0,1,678.2,175c.75,1.33,4.89,1.09,1.9,4.13l-14.86-6.29Z"/><path class="cls-116" d="M678.2,175c-5.14-3-11-4.37-16.34-6.8-.56-2-1-3.91,2.21-2.45,4.27,2,8.32,4.42,13,5.45C676.67,172.68,682,172.45,678.2,175Z"/><path class="cls-117" d="M609.16,196c1.68-1.2,3.37-2.62,5,.09-.26.95.57,2.22-1.46,2.52C610.3,199,609.85,197.49,609.16,196Z"/><path class="cls-118" d="M642.82,89.21c-7.75-1.61-12.54,2.49-16.4,8.45-1,1.52-2,3-3,4.5-2.41-.3-5.2,1.84-7.21-1.09A22.91,22.91,0,0,1,620,94c2-1.67,2.22-5,5.17-5.84,8.27-5.9,12.64-6,21-.21C645.94,90.55,644.16,89.3,642.82,89.21Z"/><path class="cls-119" d="M642.82,89.21c1.15-.4,2.67.15,3.42-1.3,6.36,3.06,8.52,9.21,11,15.09.7,1.64,1.17,3.39,1.74,5.1.06,1.76.09,3.52,1.1,5.07.91,2.21-.61,4.78,1,6.88.28.69-.09,1.71,1,2L661,124l-1.82-1c-2.42-8.91-2.83-18.42-8.2-26.44C648.87,93.41,647,90.1,642.82,89.21Z"/><path class="cls-120" d="M616.18,101.07c2.09,2.38,5-.48,7.21,1.09-1.55,2-3.69.72-5.54,1-1.09.16-2.5-.73-3.23.45-.93,1.51-1.8,3.27-3.55,1.36a3.77,3.77,0,0,1,.06-4.66c1.79-2.19,2.58.23,3.72,1.13C615.06,101.61,615.72,101.2,616.18,101.07Z"/><path class="cls-121" d="M625.19,88.12c-1.68,2-2.47,4.76-5.17,5.84.15-1.45,1.53-2.65,0-4.4-1.36-1.52-1.26-4.18.74-5.13,3-1.44,1.95,1.89,2.82,3C623.85,87.86,624.62,87.91,625.19,88.12Z"/><path class="cls-122" d="M634.29,77c1.63.47,1.74,1.75,1.62,3.09-.13,1.53-.64,3.15-2.48,2.81-1.55-.29-1.33-2-1.29-3.28S632.59,77.09,634.29,77Z"/><path class="cls-123" d="M610.4,131.83c-.12,1.1.09,2.55-1.4,2.76s-1.84-1.08-1.86-2.28-.15-3,1.61-3.05C610.16,129.2,610.33,130.64,610.4,131.83Z"/><path class="cls-118" d="M639.16,172c1.46,2,5-.12,6,2.95-7.61,1.12-15,1.5-21.08-4.6a77.29,77.29,0,0,1-5-6.31A20.4,20.4,0,0,1,615,156.3c-1.17-1.82-2.58-4.11-1-5.8,1.91-2,4.85-.92,7.38-.63,1,.38.8,1.25.81,2-.15,3.78,3.73,5.15,4.9,8.14C630.12,165.06,633.33,169.86,639.16,172Z"/><path class="cls-124" d="M621.43,149.87a1.65,1.65,0,0,1-.47.1c-5.05-.76-7.21,1.17-6,6.33-2,0-4.49.63-4.75-2.67s2.07-4,4.4-4.2S619.24,148.71,621.43,149.87Z"/><path class="cls-23" d="M619.08,164.06c2.28,1.61,4.83,3,5,6.31-.62-.05-1.29-.37-1.71.4s-.48,2.58-2.19,1.74a2.43,2.43,0,0,1-1-3.38A5.47,5.47,0,0,0,619.08,164.06Z"/><path class="cls-125" d="M639.15,181.68c-.15,1.25.16,3-1.68,3s-2-1.89-2.25-3.29.14-2.91,1.79-2.92C639,178.44,639.09,180.16,639.15,181.68Z"/><path class="cls-124" d="M627.14,160c-1.84-.8-2.59-2.79-4.94-3.41-4-1,.42-3.09,0-4.73C624.9,154,626.19,156.92,627.14,160Z"/><path class="cls-126" d="M636,28.4c.19,2.89.46,5.79-1,8.5-4,2.92-8.54,1-12.8,1.52a23.09,23.09,0,0,1-5.37-.42,2.92,2.92,0,0,1-2.43-1.14c-1-8.94-1-9,7.77-8.9C626.75,28,631.35,28.25,636,28.4Z"/><path class="cls-127" d="M612.48,25l-.39-2c-.87-2.2-.4-3.56,2.24-3.48,2,.06,3.95-.25,5.91.24q5.71.43,11.42.85c4.65.33,5.57,1.75,4.52,7-6.13-2.1-12.41-.51-18.62-.7C615.57,26.92,613.55,27.28,612.48,25Z"/><path class="cls-128" d="M636.13,38.09c-1.46,3-.34,7.91-5.93,7.66-5.17-1.39-10.45-.11-15.64-.7-1.36-.16-3.81,1.19-3.86-1.44,0-2.19,1.88-2.8,4-2.56a17,17,0,0,0,2.46-.08c3.49-2.11,7.34-1.14,11.06-1.27,2.12-.07,4.3.22,5.77-1.83A1.78,1.78,0,0,1,636.13,38.09Z"/><path class="cls-129" d="M634.19,38.07c-.11,1.8.19,3.53-2.84,3.25-4.72-.44-9.49-.26-14.23-.35,1.1-2.25-.64-1.78-1.82-1.94-1.41-.21-2.83-.51-.92-2.17l1.78.28C622.12,38.4,628.24,36.64,634.19,38.07Z"/><path class="cls-130" d="M609.29,31.2c-.52,1.57.61,3.89-1.93,4.53-1,.24-2.37.21-2.57-.84-.4-2.07-1.67-4.52,1.22-6C607.87,28.57,610.13,27.68,609.29,31.2Z"/><path class="cls-131" d="M609.29,31.2c-.17-2.08-1.86-2-3.28-2.3a6,6,0,0,0,.26-.75l3.69-.31c1.53-.2,1-1.95,1.94-2.59,2.19,4.32,1.68,8.56-.43,12.64C610,36,613,32.51,609.29,31.2Z"/><path class="cls-98" d="M634.19,38.07c-6-.68-12.11,1.06-18-.93L635,36.9l1.15,1.19Z"/><path class="cls-35" d="M620.24,19.8c-1.81.06-3.63.22-5.43.15-2.29-.09-2.83,1.17-2.72,3.09-1.55-1.51-.72-3.43-.89-5.18,2.75,2.22,6,.21,9,1.18A3.84,3.84,0,0,0,620.24,19.8Z"/><text class="cls-132" transform="translate(30.56 221.01) scale(1.05 1)">MAQUINADOS INDUSTRIALES DE PRECISION CORONA</text></g></g></svg>